<mxfile host="app.diagrams.net" modified="2020-11-09T09:39:33.936Z" agent="5.0 (Windows NT 10.0; Win64; x64) AppleWebKit/537.36 (KHTML, like Gecko) Chrome/86.0.4240.183 Safari/537.36" etag="zQhNTCylFAXjMDQsbyJR" version="13.9.2" type="github">
  <diagram id="qIfgrf48usULbvZit5Jp" name="Page-1">
    <mxGraphModel dx="2062" dy="1122" grid="1" gridSize="10" guides="1" tooltips="1" connect="1" arrows="1" fold="1" page="1" pageScale="1" pageWidth="827" pageHeight="1169" math="0" shadow="0">
      <root>
        <mxCell id="0" />
        <mxCell id="1" parent="0" />
        <mxCell id="_AaWnk4IP3Bo8M6D1c1r-24" style="edgeStyle=orthogonalEdgeStyle;rounded=0;orthogonalLoop=1;jettySize=auto;html=1;entryX=0.5;entryY=0;entryDx=0;entryDy=0;" edge="1" parent="1" source="_AaWnk4IP3Bo8M6D1c1r-1" target="_AaWnk4IP3Bo8M6D1c1r-9">
          <mxGeometry relative="1" as="geometry" />
        </mxCell>
        <mxCell id="_AaWnk4IP3Bo8M6D1c1r-25" style="edgeStyle=orthogonalEdgeStyle;rounded=0;orthogonalLoop=1;jettySize=auto;html=1;" edge="1" parent="1" source="_AaWnk4IP3Bo8M6D1c1r-1" target="_AaWnk4IP3Bo8M6D1c1r-3">
          <mxGeometry relative="1" as="geometry" />
        </mxCell>
        <mxCell id="_AaWnk4IP3Bo8M6D1c1r-1" value="每天十点运行定时任务" style="rounded=1;whiteSpace=wrap;html=1;" vertex="1" parent="1">
          <mxGeometry x="444" y="210" width="160" height="50" as="geometry" />
        </mxCell>
        <mxCell id="_AaWnk4IP3Bo8M6D1c1r-8" style="edgeStyle=orthogonalEdgeStyle;rounded=0;orthogonalLoop=1;jettySize=auto;html=1;entryX=0.5;entryY=0;entryDx=0;entryDy=0;" edge="1" parent="1" source="_AaWnk4IP3Bo8M6D1c1r-3" target="_AaWnk4IP3Bo8M6D1c1r-5">
          <mxGeometry relative="1" as="geometry" />
        </mxCell>
        <mxCell id="_AaWnk4IP3Bo8M6D1c1r-54" style="edgeStyle=orthogonalEdgeStyle;rounded=0;orthogonalLoop=1;jettySize=auto;html=1;" edge="1" parent="1" source="_AaWnk4IP3Bo8M6D1c1r-3" target="_AaWnk4IP3Bo8M6D1c1r-4">
          <mxGeometry relative="1" as="geometry" />
        </mxCell>
        <mxCell id="_AaWnk4IP3Bo8M6D1c1r-3" value="查询活跃关注用户" style="rounded=1;whiteSpace=wrap;html=1;" vertex="1" parent="1">
          <mxGeometry x="650" y="270" width="160" height="60" as="geometry" />
        </mxCell>
        <mxCell id="_AaWnk4IP3Bo8M6D1c1r-56" style="edgeStyle=orthogonalEdgeStyle;rounded=0;orthogonalLoop=1;jettySize=auto;html=1;entryX=0.5;entryY=0;entryDx=0;entryDy=0;" edge="1" parent="1" source="_AaWnk4IP3Bo8M6D1c1r-4" target="_AaWnk4IP3Bo8M6D1c1r-20">
          <mxGeometry relative="1" as="geometry" />
        </mxCell>
        <mxCell id="_AaWnk4IP3Bo8M6D1c1r-4" value="ES中获取所有浏览该项目的用户" style="rounded=1;whiteSpace=wrap;html=1;" vertex="1" parent="1">
          <mxGeometry x="760" y="390" width="180" height="60" as="geometry" />
        </mxCell>
        <mxCell id="_AaWnk4IP3Bo8M6D1c1r-55" style="edgeStyle=orthogonalEdgeStyle;rounded=0;orthogonalLoop=1;jettySize=auto;html=1;" edge="1" parent="1" source="_AaWnk4IP3Bo8M6D1c1r-5" target="_AaWnk4IP3Bo8M6D1c1r-20">
          <mxGeometry relative="1" as="geometry" />
        </mxCell>
        <mxCell id="_AaWnk4IP3Bo8M6D1c1r-5" value="关注该项目的用户" style="rounded=1;whiteSpace=wrap;html=1;" vertex="1" parent="1">
          <mxGeometry x="510" y="390" width="180" height="60" as="geometry" />
        </mxCell>
        <mxCell id="_AaWnk4IP3Bo8M6D1c1r-7" value="分页查询&lt;br&gt;（200/2000）" style="text;html=1;strokeColor=none;fillColor=none;align=center;verticalAlign=middle;whiteSpace=wrap;rounded=0;" vertex="1" parent="1">
          <mxGeometry x="690" y="450" width="60" height="20" as="geometry" />
        </mxCell>
        <mxCell id="_AaWnk4IP3Bo8M6D1c1r-11" style="edgeStyle=orthogonalEdgeStyle;rounded=0;orthogonalLoop=1;jettySize=auto;html=1;" edge="1" parent="1" source="_AaWnk4IP3Bo8M6D1c1r-9">
          <mxGeometry relative="1" as="geometry">
            <mxPoint x="318.5" y="460" as="targetPoint" />
          </mxGeometry>
        </mxCell>
        <mxCell id="_AaWnk4IP3Bo8M6D1c1r-44" style="edgeStyle=orthogonalEdgeStyle;rounded=0;orthogonalLoop=1;jettySize=auto;html=1;entryX=1;entryY=0.23;entryDx=0;entryDy=0;entryPerimeter=0;" edge="1" parent="1" source="_AaWnk4IP3Bo8M6D1c1r-9" target="_AaWnk4IP3Bo8M6D1c1r-43">
          <mxGeometry relative="1" as="geometry" />
        </mxCell>
        <mxCell id="_AaWnk4IP3Bo8M6D1c1r-9" value="" style="rhombus;whiteSpace=wrap;html=1;" vertex="1" parent="1">
          <mxGeometry x="263.5" y="330" width="110" height="90" as="geometry" />
        </mxCell>
        <mxCell id="_AaWnk4IP3Bo8M6D1c1r-10" value="动态创建时间是否大于15天" style="text;html=1;strokeColor=none;fillColor=none;align=center;verticalAlign=middle;whiteSpace=wrap;rounded=0;" vertex="1" parent="1">
          <mxGeometry x="293.5" y="365" width="55" height="20" as="geometry" />
        </mxCell>
        <mxCell id="_AaWnk4IP3Bo8M6D1c1r-13" value="否" style="text;html=1;strokeColor=none;fillColor=none;align=center;verticalAlign=middle;whiteSpace=wrap;rounded=0;" vertex="1" parent="1">
          <mxGeometry x="278.5" y="420" width="40" height="20" as="geometry" />
        </mxCell>
        <mxCell id="_AaWnk4IP3Bo8M6D1c1r-14" value="是" style="text;html=1;strokeColor=none;fillColor=none;align=center;verticalAlign=middle;whiteSpace=wrap;rounded=0;" vertex="1" parent="1">
          <mxGeometry x="223.5" y="340" width="40" height="20" as="geometry" />
        </mxCell>
        <mxCell id="_AaWnk4IP3Bo8M6D1c1r-18" style="edgeStyle=orthogonalEdgeStyle;rounded=0;orthogonalLoop=1;jettySize=auto;html=1;entryX=0.5;entryY=0;entryDx=0;entryDy=0;" edge="1" parent="1" source="_AaWnk4IP3Bo8M6D1c1r-15" target="_AaWnk4IP3Bo8M6D1c1r-38">
          <mxGeometry relative="1" as="geometry">
            <mxPoint x="321.5" y="570" as="targetPoint" />
          </mxGeometry>
        </mxCell>
        <mxCell id="_AaWnk4IP3Bo8M6D1c1r-15" value="选择最新勾选动态推送" style="rounded=0;whiteSpace=wrap;html=1;" vertex="1" parent="1">
          <mxGeometry x="261.5" y="460" width="120" height="60" as="geometry" />
        </mxCell>
        <mxCell id="_AaWnk4IP3Bo8M6D1c1r-39" style="edgeStyle=orthogonalEdgeStyle;rounded=0;orthogonalLoop=1;jettySize=auto;html=1;entryX=0.5;entryY=0;entryDx=0;entryDy=0;" edge="1" parent="1" source="_AaWnk4IP3Bo8M6D1c1r-20" target="_AaWnk4IP3Bo8M6D1c1r-38">
          <mxGeometry relative="1" as="geometry" />
        </mxCell>
        <mxCell id="_AaWnk4IP3Bo8M6D1c1r-20" value="活跃用户" style="rounded=1;whiteSpace=wrap;html=1;" vertex="1" parent="1">
          <mxGeometry x="640" y="510" width="160" height="60" as="geometry" />
        </mxCell>
        <mxCell id="_AaWnk4IP3Bo8M6D1c1r-29" style="edgeStyle=orthogonalEdgeStyle;rounded=0;orthogonalLoop=1;jettySize=auto;html=1;entryX=0.5;entryY=0;entryDx=0;entryDy=0;" edge="1" parent="1" source="_AaWnk4IP3Bo8M6D1c1r-28" target="_AaWnk4IP3Bo8M6D1c1r-1">
          <mxGeometry relative="1" as="geometry" />
        </mxCell>
        <mxCell id="_AaWnk4IP3Bo8M6D1c1r-28" value="编辑动态并保存" style="rounded=1;whiteSpace=wrap;html=1;" vertex="1" parent="1">
          <mxGeometry x="444" y="100" width="160" height="60" as="geometry" />
        </mxCell>
        <mxCell id="_AaWnk4IP3Bo8M6D1c1r-46" style="edgeStyle=orthogonalEdgeStyle;rounded=0;orthogonalLoop=1;jettySize=auto;html=1;entryX=1.02;entryY=0.68;entryDx=0;entryDy=0;entryPerimeter=0;" edge="1" parent="1" source="_AaWnk4IP3Bo8M6D1c1r-38" target="_AaWnk4IP3Bo8M6D1c1r-43">
          <mxGeometry relative="1" as="geometry" />
        </mxCell>
        <mxCell id="_AaWnk4IP3Bo8M6D1c1r-48" style="edgeStyle=orthogonalEdgeStyle;rounded=0;orthogonalLoop=1;jettySize=auto;html=1;entryX=0.5;entryY=0;entryDx=0;entryDy=0;" edge="1" parent="1" source="_AaWnk4IP3Bo8M6D1c1r-38">
          <mxGeometry relative="1" as="geometry">
            <mxPoint x="509" y="760" as="targetPoint" />
          </mxGeometry>
        </mxCell>
        <mxCell id="_AaWnk4IP3Bo8M6D1c1r-38" value="" style="rhombus;whiteSpace=wrap;html=1;" vertex="1" parent="1">
          <mxGeometry x="444" y="590" width="130" height="120" as="geometry" />
        </mxCell>
        <mxCell id="_AaWnk4IP3Bo8M6D1c1r-40" value="用户是否已收到过该推送或用户本周是否收到过推送" style="text;html=1;strokeColor=none;fillColor=none;align=center;verticalAlign=middle;whiteSpace=wrap;rounded=0;" vertex="1" parent="1">
          <mxGeometry x="465.75" y="650" width="86.5" height="20" as="geometry" />
        </mxCell>
        <mxCell id="_AaWnk4IP3Bo8M6D1c1r-43" value="" style="rounded=0;whiteSpace=wrap;html=1;" vertex="1" parent="1">
          <mxGeometry x="135" y="235" width="50" height="610" as="geometry" />
        </mxCell>
        <mxCell id="_AaWnk4IP3Bo8M6D1c1r-45" value="不发" style="text;html=1;strokeColor=none;fillColor=none;align=center;verticalAlign=middle;whiteSpace=wrap;rounded=0;" vertex="1" parent="1">
          <mxGeometry x="140" y="530" width="40" height="20" as="geometry" />
        </mxCell>
        <mxCell id="_AaWnk4IP3Bo8M6D1c1r-47" value="是" style="text;html=1;strokeColor=none;fillColor=none;align=center;verticalAlign=middle;whiteSpace=wrap;rounded=0;" vertex="1" parent="1">
          <mxGeometry x="298.5" y="620" width="40" height="20" as="geometry" />
        </mxCell>
        <mxCell id="_AaWnk4IP3Bo8M6D1c1r-49" value="否" style="text;html=1;strokeColor=none;fillColor=none;align=center;verticalAlign=middle;whiteSpace=wrap;rounded=0;" vertex="1" parent="1">
          <mxGeometry x="470" y="720" width="40" height="20" as="geometry" />
        </mxCell>
        <mxCell id="_AaWnk4IP3Bo8M6D1c1r-51" value="" style="rounded=1;whiteSpace=wrap;html=1;" vertex="1" parent="1">
          <mxGeometry x="404" y="760" width="200" height="80" as="geometry" />
        </mxCell>
        <mxCell id="_AaWnk4IP3Bo8M6D1c1r-52" value="给用户发送公众号消息，记录发送日志" style="text;html=1;strokeColor=none;fillColor=none;align=center;verticalAlign=middle;whiteSpace=wrap;rounded=0;" vertex="1" parent="1">
          <mxGeometry x="424" y="790" width="170" height="20" as="geometry" />
        </mxCell>
      </root>
    </mxGraphModel>
  </diagram>
</mxfile>
